# File created by Blade
# Date/Time:  Thu Jan 22 15:33:01 2015
# Frame Rate: 120.000 fps
#------------------------------------------------------
:FULLY-SPECIFIED
:DEGREES
1715
root 1.531244 17.173773 5.031074 302.936417 -83.533048 -489.216494
RightUpLeg -102.583360 4.187716 -1.107869
RightLeg 6.326437 -0.000000 -0.000000
RightFoot 32.543796 41.813332 -47.719599
RightToeBase -47.238153 -0.000000 0.000000
LeftUpLeg -101.381146 -4.472438 -18.141404
LeftLeg 9.604613 -0.000000 -0.000000
LeftFoot 36.604704 -15.302877 -2.758390
LeftToeBase 28.246708 -0.000000 -0.000000
Spine 44.194550 4.634478 -5.818389
RightShoulder -171.584499 28.275920 169.770763
RightArm 152.915867 59.686991 89.297329
RightForeArm 69.751991 -0.000000 102.958560
RightHand 10.552432 0.000000 -10.415223
RightHandThumb1 -24.326973 -0.000000 -32.862282
LeftShoulder -10.977520 38.593031 22.301049
LeftArm 11.502248 62.515560 -63.262958
LeftForeArm -32.363228 -0.000000 104.673593
LeftHand -31.035953 0.000000 -3.268948
LeftHandThumb1 -26.253704 0.000000 33.147579
Head 75.820341 -8.917837 -45.893270
1716
root 1.502884 17.159594 5.032154 303.199489 -83.583350 -489.500630
RightUpLeg -102.591637 4.161338 -1.047214
RightLeg 6.250828 -0.000000 -0.000000
RightFoot 32.575349 41.829917 -47.621103
RightToeBase -47.364830 -0.000000 0.000000
LeftUpLeg -101.343078 -4.474256 -17.941021
LeftLeg 9.448285 -0.000000 -0.000000
LeftFoot 36.579692 -15.158087 -2.883694
LeftToeBase 28.179536 -0.000000 -0.000000
Spine 44.285355 4.680396 -5.642477
RightShoulder -171.547723 28.312183 169.732646
RightArm 152.922457 59.688812 89.197621
RightForeArm 69.791004 -0.000000 102.920014
RightHand 10.536923 -0.000000 -10.555915
RightHandThumb1 -24.326973 -0.000000 -32.862282
LeftShoulder -10.860511 38.512017 22.389881
LeftArm 11.738398 62.537768 -63.064361
LeftForeArm -32.424369 0.000000 104.655256
LeftHand -31.196578 -0.000000 -3.156112
LeftHandThumb1 -26.253704 0.000000 33.147579
Head 75.764147 -8.965339 -45.849608
1717
root 1.475554 17.147887 5.033793 303.808665 -83.685333 -490.123911
RightUpLeg -102.606725 4.147636 -0.877444
RightLeg 6.158854 -0.000000 -0.000000
RightFoot 32.490017 41.849009 -47.672555
RightToeBase -47.242034 -0.000000 0.000000
LeftUpLeg -101.377526 -4.504538 -17.752150
LeftLeg 9.362048 -0.000000 -0.000000
LeftFoot 36.641594 -15.037651 -3.041281
LeftToeBase 28.113099 -0.000000 -0.000000
Spine 44.377187 4.659542 -5.507566
RightShoulder -171.622257 28.457694 169.747210
RightArm 153.157492 59.676054 89.416860
RightForeArm 69.845186 -0.000000 102.905282
RightHand 10.591931 -0.000000 -10.443625
RightHandThumb1 -24.326973 -0.000000 -32.862282
LeftShoulder -10.740847 38.589618 22.390227
LeftArm 11.665460 62.414897 -63.198959
LeftForeArm -32.349043 0.000000 104.708988
LeftHand -31.215851 -0.000000 -3.155429
LeftHandThumb1 -26.253704 0.000000 33.147579
Head 75.653449 -8.983962 -45.713502
1718
root 1.449717 17.136047 5.035455 304.615287 -83.786622 -490.970498
RightUpLeg -102.599097 4.118716 -0.657814
RightLeg 6.032177 -0.000000 -0.000000
RightFoot 32.340020 42.009170 -47.801918
RightToeBase -47.260706 -0.000000 0.000000
LeftUpLeg -101.387679 -4.552872 -17.554961
LeftLeg 9.238422 -0.000000 -0.000000
LeftFoot 36.762651 -14.947818 -2.968883
LeftToeBase 28.095351 -0.000000 -0.000000
Spine 44.475524 4.612847 -5.353036
RightShoulder -171.699034 28.551563 169.723925
RightArm 153.308304 59.675251 89.547981
RightForeArm 69.803388 -0.000000 102.862586
RightHand 10.604613 -0.000000 -10.289917
RightHandThumb1 -24.326973 -0.000000 -32.862282
LeftShoulder -10.617407 38.598257 22.423509
LeftArm 11.522757 62.351751 -63.404585
LeftForeArm -32.236931 -0.000000 104.745220
LeftHand -31.586940 0.000000 -2.946262
LeftHandThumb1 -26.253704 0.000000 33.147579
Head 75.576443 -8.972187 -45.662349
1719
root 1.425877 17.117752 5.039238 305.341100 -83.869768 -491.804502
RightUpLeg -102.529109 4.100172 -0.366173
RightLeg 5.930353 -0.000000 -0.000000
RightFoot 32.084665 42.108931 -47.997359
RightToeBase -47.288678 -0.000000 0.000000
LeftUpLeg -101.327927 -4.609605 -17.573498
LeftLeg 9.133287 -0.000000 -0.000000
LeftFoot 36.909466 -14.782280 -3.182818
LeftToeBase 27.946183 -0.000000 -0.000000
Spine 44.638170 4.596968 -5.116738
RightShoulder -171.717861 28.701296 169.694103
RightArm 153.518596 59.636176 89.656357
RightForeArm 69.737172 -0.000000 102.781060
RightHand 10.543098 -0.000000 -10.250389
RightHandThumb1 -24.326973 -0.000000 -32.862282
LeftShoulder -10.507225 38.607448 22.433724
LeftArm 11.846100 62.335064 -63.128341
LeftForeArm -32.323824 -0.000000 104.697095
LeftHand -31.694164 -0.000000 -2.874856
LeftHandThumb1 -26.253704 0.000000 33.147579
Head 75.537171 -8.887581 -45.696754
1720
root 1.404168 17.107743 5.040295 306.110840 -83.958620 -492.632131
RightUpLeg -102.530366 4.077497 -0.225364
RightLeg 5.806658 -0.000000 -0.000000
RightFoot 32.036726 42.198664 -48.083232
RightToeBase -47.344382 -0.000000 0.000000
LeftUpLeg -101.318245 -4.649260 -17.327327
LeftLeg 8.927757 -0.000000 -0.000000
LeftFoot 36.953613 -14.690982 -3.235488
LeftToeBase 27.873660 -0.000000 -0.000000
Spine 44.722422 4.457498 -5.049585
RightShoulder -171.934484 28.894330 169.616611
RightArm 153.821154 59.604599 89.898355
RightForeArm 69.616285 0.000000 102.687749
RightHand 10.601535 -0.000000 -10.046938
RightHandThumb1 -24.326973 -0.000000 -32.862282
LeftShoulder -10.594057 38.760548 22.317667
LeftArm 12.049735 62.288854 -62.963728
LeftForeArm -32.290886 0.000000 104.646178
LeftHand -31.570131 0.000000 -2.956952
LeftHandThumb1 -26.253704 0.000000 33.147579
Head 75.361034 -8.679570 -45.602801
1721
root 1.387573 17.098587 5.038884 306.477809 -84.011070 -493.063341
RightUpLeg -102.534222 4.086409 -0.075098
RightLeg 5.695740 -0.000000 -0.000000
RightFoot 32.144765 42.045382 -47.939801
RightToeBase -47.427358 -0.000000 0.000000
LeftUpLeg -101.292092 -4.653962 -17.083600
LeftLeg 8.690993 -0.000000 -0.000000
LeftFoot 37.027276 -14.512296 -3.315258
LeftToeBase 27.923274 -0.000000 -0.000000
Spine 44.785644 4.417320 -4.996223
RightShoulder -172.079177 29.083616 169.631330
RightArm 154.030782 59.560621 90.094141
RightForeArm 69.555062 -0.000000 102.648513
RightHand 10.616558 -0.000000 -9.993154
RightHandThumb1 -24.326973 -0.000000 -32.862282
LeftShoulder -10.503027 38.953379 22.309307
LeftArm 12.171884 62.175995 -62.873586
LeftForeArm -32.230141 -0.000000 104.577149
LeftHand -31.294619 -0.000000 -3.315637
LeftHandThumb1 -26.253704 0.000000 33.147579
Head 75.311325 -8.517009 -45.462255
1722
root 1.372603 17.089298 5.035039 306.600237 -84.060495 -493.332250
RightUpLeg -102.451670 4.107976 0.007440
RightLeg 5.568375 -0.000000 -0.000000
RightFoot 32.165851 41.988393 -47.946308
RightToeBase -47.240879 -0.000000 0.000000
LeftUpLeg -101.205394 -4.607603 -16.788023
LeftLeg 8.473941 -0.000000 -0.000000
LeftFoot 37.012849 -14.344302 -3.568636
LeftToeBase 27.867036 -0.000000 -0.000000
Spine 44.948383 4.409646 -4.954316
RightShoulder -172.167993 29.353432 169.690586
RightArm 154.457252 59.536903 90.509738
RightForeArm 69.501391 0.000000 102.632569
RightHand 10.622370 0.000000 -9.936253
RightHandThumb1 -24.326973 -0.000000 -32.862282
LeftShoulder -10.464226 39.185516 22.273399
LeftArm 12.472214 62.059820 -62.613257
LeftForeArm -32.047767 -0.000000 104.491311
LeftHand -31.356464 -0.000000 -3.296374
LeftHandThumb1 -26.253704 0.000000 33.147579
Head 75.255075 -8.366439 -45.310726
1723
root 1.360406 17.082749 5.030379 306.680779 -84.095656 -493.530342
RightUpLeg -102.408351 4.138252 0.071194
RightLeg 5.465497 -0.000000 -0.000000
RightFoot 32.205736 41.918236 -47.952216
RightToeBase -47.182142 -0.000000 0.000000
LeftUpLeg -101.158304 -4.565654 -16.440748
LeftLeg 8.257546 -0.000000 -0.000000
LeftFoot 37.170191 -14.117581 -3.586678
LeftToeBase 27.862384 -0.000000 -0.000000
Spine 45.057048 4.424223 -4.938568
RightShoulder -172.239109 29.642071 169.809696
RightArm 154.894981 59.515863 90.984728
RightForeArm 69.335545 -0.000000 102.584438
RightHand 10.742854 -0.000000 -9.707078
RightHandThumb1 -24.326973 -0.000000 -32.862282
LeftShoulder -10.359111 39.433510 22.290237
LeftArm 12.659056 61.892107 -62.498004
LeftForeArm -31.826336 0.000000 104.412307
LeftHand -31.446111 -0.000000 -3.528097
LeftHandThumb1 -26.253704 0.000000 33.147579
Head 75.245357 -8.212306 -45.063490
1724
root 1.350756 17.073268 5.026443 306.805717 -84.159579 -493.863141
RightUpLeg -102.264574 4.166097 0.098674
RightLeg 5.371413 -0.000000 -0.000000
RightFoot 32.288630 41.826931 -47.909448
RightToeBase -46.789565 -0.000000 0.000000
LeftUpLeg -101.040755 -4.492872 -16.118266
LeftLeg 8.090403 -0.000000 -0.000000
LeftFoot 37.224119 -13.935192 -3.718374
LeftToeBase 27.868588 -0.000000 -0.000000
Spine 45.271551 4.472588 -4.827220
RightShoulder -172.293695 30.033030 169.962228
RightArm 155.370035 59.437360 91.509801
RightForeArm 69.119841 -0.000000 102.563881
RightHand 11.000979 -0.000000 -9.376199
RightHandThumb1 -24.326973 -0.000000 -32.862282
LeftShoulder -10.251499 39.657971 22.271949
LeftArm 12.960584 61.740916 -62.217524
LeftForeArm -31.717529 -0.000000 104.352452
LeftHand -31.269767 -0.000000 -3.737955
LeftHandThumb1 -26.253704 0.000000 33.147579
Head 75.224058 -8.049507 -44.780328
1725
root 1.345732 17.063996 5.019894 306.813007 -84.183934 -494.078426
RightUpLeg -102.119400 4.201368 0.156886
RightLeg 5.309856 -0.000000 -0.000000
RightFoot 32.224543 41.733525 -48.047836
RightToeBase -46.325730 -0.000000 0.000000
LeftUpLeg -100.891644 -4.399995 -15.595496
LeftLeg 7.880238 -0.000000 -0.000000
LeftFoot 37.247240 -13.662295 -3.577708
LeftToeBase 27.868490 -0.000000 -0.000000
Spine 45.443668 4.484495 -4.782831
RightShoulder -172.442363 30.418234 170.055955
RightArm 155.828606 59.267948 91.929573
RightForeArm 69.060149 -0.000000 102.552283
RightHand 11.074264 0.000000 -9.324540
RightHandThumb1 -24.326973 -0.000000 -32.862282
LeftShoulder -10.090400 39.977120 22.249348
LeftArm 13.234106 61.498200 -61.961351
LeftForeArm -31.636633 -0.000000 104.313924
LeftHand -31.164473 -0.000000 -3.854353
LeftHandThumb1 -26.253704 0.000000 33.147579
Head 75.263466 -7.785183 -44.633925
1726
root 1.343756 17.057210 5.016646 306.827464 -84.192286 -494.321174
RightUpLeg -101.951534 4.219534 0.184795
RightLeg 5.226978 -0.000000 -0.000000
RightFoot 32.371399 41.596046 -47.968840
RightToeBase -46.422092 -0.000000 0.000000
LeftUpLeg -100.726655 -4.328962 -15.152685
LeftLeg 7.689132 -0.000000 -0.000000
LeftFoot 37.336276 -13.318461 -3.496314
LeftToeBase 27.861493 -0.000000 -0.000000
Spine 45.634558 4.472424 -4.753956
RightShoulder -172.568104 30.743284 170.122429
RightArm 156.205844 59.116270 92.284797
RightForeArm 68.916770 -0.000000 102.522994
RightHand 11.123103 0.000000 -9.224781
RightHandThumb1 -24.326973 -0.000000 -32.862282
LeftShoulder -9.984937 40.362831 22.178495
LeftArm 13.634108 61.259534 -61.564908
LeftForeArm -31.465133 -0.000000 104.310487
LeftHand -31.101019 -0.000000 -3.842009
LeftHandThumb1 -26.253704 0.000000 33.147579
Head 75.254427 -7.503541 -44.462041
1727
root 1.351555 17.112939 5.157419 311.954117 -84.555656 -499.321660
RightUpLeg -102.296107 3.869274 1.090399
RightLeg 5.332286 -0.000000 -0.000000
RightFoot 31.925390 41.831796 -48.079916
RightToeBase -46.597761 -0.000000 0.000000
LeftUpLeg -101.141758 -4.769076 -13.465209
LeftLeg 7.687162 -0.000000 -0.000000
LeftFoot 37.252255 -12.277078 -2.959034
LeftToeBase 27.833862 -0.000000 -0.000000
Spine 44.242974 1.905160 -3.092935
RightShoulder -176.067850 31.369463 164.557134
RightArm 154.826476 57.796198 86.851247
RightForeArm 67.180486 -0.000000 101.040817
RightHand 10.739882 -0.000000 -9.711467
RightHandThumb1 -24.326973 -0.000000 -32.862282
LeftShoulder -8.684528 42.630860 18.931678
LeftArm 13.006804 58.645075 -59.893742
LeftForeArm -32.489164 -0.000000 105.761590
LeftHand -30.555847 -0.000000 -4.122532
LeftHandThumb1 -26.253704 0.000000 33.147579
Head 73.693554 -5.553416 -21.665739
